<?xml version="1.0" encoding="utf-8"?>
<svg width="66px" height="66px" viewBox="0 0 66 66" version="1.1" xmlns:xlink="http://www.w3.org/1999/xlink" xmlns="http://www.w3.org/2000/svg">
  <g id="Group-2">
    <path d="M0 33C0 14.7746 14.7746 0 33 0C51.2254 0 66 14.7746 66 33C66 51.2254 51.2254 66 33 66C14.7746 66 0 51.2254 0 33Z" id="Ellipse-2" fill="#4CAF50" fill-rule="evenodd" stroke="none" />
    <g id="vuesaxoutlineflash" transform="matrix(0.99999994 0 0 0.99999994 13.357422 13.35733)">
      <g id="vuesaxoutlineflash">
        <g id="flash">
          <path d="M15.568 37.0921C14.9133 36.8465 13.8002 36.0445 13.8002 33.5073L13.8002 22.9492L9.9698 22.9492C7.77635 22.9492 6.99064 21.918 6.71236 21.3123C6.43409 20.6903 6.18855 19.4299 7.62903 17.7766L20.0204 3.69922C21.69 1.80041 23.0487 1.93137 23.7034 2.1769C24.3582 2.42244 25.4713 3.22452 25.4713 5.76172L25.4713 16.3198L29.3016 16.3198C31.4951 16.3198 32.2808 17.351 32.5591 17.9567C32.8374 18.5787 33.0829 19.8391 31.6424 21.4924L19.2511 35.5698C18.0889 36.8956 17.074 37.2394 16.3537 37.2394C16.0264 37.2394 15.7644 37.1739 15.568 37.0921ZM21.8701 5.33613L9.47873 19.4135C9.0204 19.9373 8.95492 20.2647 8.95492 20.3302C8.98766 20.3465 9.2823 20.5102 9.9698 20.5102L15.0278 20.5102C15.699 20.5102 16.2555 21.0668 16.2555 21.7379L16.2555 33.5236C16.2555 34.3421 16.4028 34.7022 16.4683 34.8004C16.5174 34.7349 16.8612 34.5712 17.4014 33.9492L29.7927 19.8718C30.2511 19.348 30.3165 19.0207 30.3165 18.9552C30.2838 18.9388 29.9891 18.7751 29.3016 18.7751L24.2436 18.7751C23.5725 18.7751 23.0159 18.2186 23.0159 17.5474L23.0159 5.76172C23.0323 4.94327 22.8686 4.59952 22.8031 4.48494C22.754 4.55041 22.4103 4.7141 21.8701 5.33613Z" id="Vector" fill="#FFFFFF" fill-rule="evenodd" stroke="none" />
          <path d="M39.2857 0L39.2857 39.2857L0 39.2857L0 0L39.2857 0Z" id="Vector" fill="none" fill-rule="evenodd" stroke="none" />
        </g>
      </g>
    </g>
  </g>
</svg>